<?xml version="1.0" encoding="utf-8"?>
<!-- Generator: Adobe Illustrator 27.5.0, SVG Export Plug-In . SVG Version: 6.00 Build 0)  -->
<svg version="1.1" xmlns="http://www.w3.org/2000/svg" xmlns:xlink="http://www.w3.org/1999/xlink" x="0px" y="0px"
	 viewBox="0 0 800 800" style="enable-background:new 0 0 800 800;" xml:space="preserve">
<g id="Background">
	<rect style="fill:#FFFFFF;" width="800" height="800"/>
</g>
<g id="Designed_by_freepik">
	<g>
		<g>
			<path style="fill:#142C42;" d="M278.409,769.665v-0.281c-0.38,0.434-0.754,0.79-1.124,1.061c-0.369,0.275-0.77,0.481-1.202,0.622
				c-0.431,0.145-0.902,0.213-1.413,0.213c-0.677,0-1.304-0.143-1.88-0.428c-0.576-0.288-1.075-0.696-1.496-1.229
				c-0.422-0.53-0.741-1.154-0.958-1.874c-0.217-0.718-0.326-1.495-0.326-2.33c0-1.768,0.432-3.146,1.295-4.134
				c0.863-0.986,1.999-1.48,3.408-1.48c0.814,0,1.501,0.141,2.06,0.42c0.56,0.279,1.105,0.711,1.637,1.288v-4.172
				c0-0.581,0.115-1.018,0.347-1.316c0.23-0.296,0.56-0.445,0.989-0.445c0.428,0,0.757,0.136,0.989,0.409
				c0.232,0.275,0.347,0.675,0.347,1.208v12.47c0,0.539-0.123,0.941-0.373,1.212c-0.249,0.268-0.569,0.403-0.963,0.403
				c-0.387,0-0.706-0.138-0.958-0.417C278.535,770.581,278.409,770.183,278.409,769.665z M272.847,765.512
				c0,0.767,0.119,1.418,0.357,1.957c0.238,0.539,0.564,0.944,0.979,1.216c0.415,0.273,0.867,0.411,1.357,0.411
				c0.497,0,0.951-0.13,1.362-0.39c0.411-0.258,0.739-0.656,0.983-1.19c0.245-0.534,0.367-1.206,0.367-2.004
				c0-0.754-0.122-1.401-0.367-1.945c-0.245-0.541-0.576-0.954-0.994-1.242c-0.418-0.285-0.875-0.428-1.372-0.428
				c-0.518,0-0.98,0.147-1.388,0.439c-0.407,0.294-0.723,0.713-0.947,1.263C272.959,764.149,272.847,764.786,272.847,765.512z"/>
			<path style="fill:#142C42;" d="M290.877,766.228h-5.53c0.007,0.641,0.136,1.208,0.389,1.697c0.251,0.49,0.587,0.861,1.004,1.107
				c0.418,0.249,0.879,0.373,1.383,0.373c0.338,0,0.647-0.038,0.927-0.117c0.28-0.081,0.551-0.204,0.814-0.375
				c0.263-0.168,0.504-0.349,0.725-0.543c0.22-0.194,0.506-0.458,0.859-0.788c0.145-0.124,0.352-0.188,0.622-0.188
				c0.29,0,0.524,0.081,0.703,0.241c0.18,0.16,0.27,0.381,0.27,0.673c0,0.255-0.101,0.552-0.3,0.895
				c-0.202,0.343-0.504,0.671-0.907,0.984c-0.405,0.315-0.911,0.575-1.523,0.782c-0.61,0.209-1.313,0.311-2.107,0.311
				c-1.815,0-3.228-0.518-4.236-1.553c-1.008-1.035-1.512-2.441-1.512-4.215c0-0.837,0.124-1.612,0.372-2.326
				c0.249-0.716,0.612-1.327,1.087-1.838c0.477-0.511,1.063-0.903,1.761-1.176c0.697-0.273,1.471-0.409,2.32-0.409
				c1.104,0,2.052,0.232,2.841,0.699c0.792,0.466,1.384,1.069,1.777,1.806c0.392,0.739,0.59,1.493,0.59,2.258
				c0,0.714-0.204,1.173-0.611,1.384C292.19,766.121,291.616,766.228,290.877,766.228z M285.347,764.622h5.127
				c-0.068-0.967-0.331-1.691-0.782-2.17c-0.453-0.481-1.047-0.72-1.786-0.72c-0.704,0-1.283,0.243-1.735,0.728
				C285.718,762.948,285.444,763.668,285.347,764.622z"/>
			<path style="fill:#142C42;" d="M303.76,767.582c0,0.779-0.189,1.448-0.57,2.004c-0.379,0.556-0.94,0.977-1.683,1.265
				c-0.742,0.285-1.645,0.428-2.708,0.428c-1.015,0-1.885-0.156-2.61-0.466c-0.725-0.309-1.26-0.698-1.605-1.163
				c-0.346-0.469-0.518-0.935-0.518-1.406c0-0.311,0.11-0.575,0.332-0.797c0.22-0.219,0.5-0.33,0.839-0.33
				c0.296,0,0.523,0.072,0.683,0.217c0.159,0.145,0.311,0.349,0.455,0.609c0.29,0.507,0.638,0.88,1.042,1.131
				c0.404,0.247,0.954,0.373,1.652,0.373c0.566,0,1.03-0.128,1.393-0.379c0.362-0.253,0.543-0.541,0.543-0.865
				c0-0.498-0.187-0.858-0.564-1.086c-0.376-0.228-0.996-0.447-1.859-0.654c-0.973-0.241-1.766-0.496-2.377-0.763
				c-0.611-0.264-1.099-0.615-1.465-1.05c-0.366-0.435-0.549-0.971-0.549-1.606c0-0.564,0.169-1.101,0.507-1.606
				c0.339-0.503,0.837-0.905,1.498-1.205c0.658-0.3,1.454-0.451,2.386-0.451c0.732,0,1.39,0.077,1.973,0.23
				c0.584,0.149,1.072,0.356,1.461,0.611c0.39,0.253,0.687,0.537,0.89,0.848c0.203,0.311,0.305,0.613,0.305,0.912
				c0,0.324-0.109,0.59-0.325,0.799c-0.217,0.204-0.526,0.311-0.928,0.311c-0.29,0-0.537-0.083-0.74-0.251
				c-0.203-0.164-0.437-0.413-0.699-0.743c-0.214-0.277-0.465-0.498-0.756-0.664c-0.29-0.166-0.684-0.247-1.181-0.247
				c-0.511,0-0.935,0.107-1.273,0.326c-0.338,0.217-0.508,0.488-0.508,0.812c0,0.298,0.124,0.541,0.372,0.73
				c0.249,0.192,0.584,0.349,1.006,0.473c0.421,0.124,1,0.275,1.74,0.454c0.876,0.215,1.592,0.471,2.148,0.767
				c0.555,0.296,0.976,0.647,1.264,1.052C303.617,766.605,303.76,767.065,303.76,767.582z"/>
			<path style="fill:#142C42;" d="M306.648,758.469c-0.394,0-0.73-0.121-1.01-0.362c-0.279-0.241-0.42-0.584-0.42-1.026
				c0-0.4,0.143-0.728,0.43-0.988c0.286-0.26,0.62-0.39,0.999-0.39c0.366,0,0.691,0.117,0.973,0.354
				c0.283,0.234,0.425,0.575,0.425,1.025c0,0.437-0.139,0.775-0.415,1.02C307.356,758.346,307.028,758.469,306.648,758.469z
				 M308.047,761.389v8.172c0,0.567-0.135,0.995-0.404,1.284c-0.27,0.29-0.611,0.435-1.025,0.435c-0.415,0-0.751-0.147-1.01-0.445
				c-0.259-0.296-0.388-0.722-0.388-1.274v-8.089c0-0.558,0.129-0.98,0.388-1.263c0.259-0.283,0.595-0.426,1.01-0.426
				c0.415,0,0.755,0.143,1.025,0.426C307.912,760.492,308.047,760.886,308.047,761.389z"/>
			<path style="fill:#142C42;" d="M320.433,761.856v8.212c0,0.939-0.101,1.748-0.302,2.426c-0.199,0.675-0.52,1.235-0.963,1.676
				c-0.442,0.441-1.02,0.771-1.734,0.984c-0.715,0.215-1.604,0.322-2.667,0.322c-0.973,0-1.843-0.136-2.61-0.409
				c-0.766-0.275-1.355-0.626-1.771-1.056c-0.414-0.432-0.622-0.875-0.622-1.331c0-0.345,0.118-0.628,0.353-0.843
				c0.234-0.219,0.518-0.328,0.849-0.328c0.414,0,0.777,0.183,1.088,0.549c0.151,0.185,0.308,0.375,0.471,0.564
				c0.162,0.192,0.343,0.354,0.539,0.488c0.197,0.134,0.433,0.234,0.709,0.3c0.276,0.064,0.595,0.098,0.953,0.098
				c0.732,0,1.3-0.102,1.704-0.307c0.404-0.202,0.687-0.488,0.849-0.854c0.162-0.364,0.257-0.756,0.285-1.176
				c0.028-0.417,0.048-1.088,0.062-2.015c-0.435,0.609-0.936,1.071-1.507,1.389c-0.569,0.317-1.248,0.477-2.034,0.477
				c-0.946,0-1.773-0.243-2.481-0.726c-0.707-0.483-1.251-1.159-1.63-2.03c-0.38-0.871-0.569-1.874-0.569-3.014
				c0-0.848,0.115-1.616,0.346-2.298c0.232-0.686,0.562-1.261,0.989-1.732c0.428-0.469,0.922-0.822,1.481-1.061
				c0.559-0.238,1.173-0.358,1.844-0.358c0.8,0,1.495,0.156,2.082,0.46c0.586,0.309,1.133,0.79,1.636,1.446v-0.383
				c0-0.49,0.12-0.869,0.362-1.139c0.242-0.268,0.553-0.405,0.933-0.405c0.545,0,0.907,0.179,1.087,0.534
				C320.343,760.673,320.433,761.187,320.433,761.856z M312.241,765.44c0,1.146,0.25,2.013,0.75,2.598
				c0.501,0.588,1.148,0.882,1.942,0.882c0.469,0,0.913-0.128,1.33-0.379c0.419-0.251,0.758-0.633,1.021-1.139
				c0.261-0.507,0.393-1.122,0.393-1.849c0-1.152-0.254-2.051-0.761-2.692c-0.508-0.641-1.176-0.963-2.005-0.963
				c-0.808,0-1.455,0.307-1.941,0.922C312.483,763.434,312.241,764.307,312.241,765.44z"/>
			<path style="fill:#142C42;" d="M324.926,761.349v0.341c0.496-0.656,1.04-1.137,1.631-1.444c0.591-0.307,1.268-0.462,2.035-0.462
				c0.746,0,1.412,0.164,1.999,0.488c0.586,0.326,1.026,0.784,1.315,1.376c0.187,0.347,0.308,0.72,0.363,1.12
				c0.055,0.4,0.084,0.912,0.084,1.534v5.26c0,0.567-0.13,0.995-0.389,1.284c-0.259,0.29-0.595,0.435-1.01,0.435
				c-0.422,0-0.763-0.147-1.025-0.445c-0.263-0.296-0.393-0.722-0.393-1.274v-4.713c0-0.931-0.13-1.644-0.389-2.138
				c-0.259-0.492-0.775-0.741-1.549-0.741c-0.503,0-0.963,0.151-1.377,0.452c-0.414,0.3-0.718,0.713-0.911,1.237
				c-0.138,0.422-0.207,1.208-0.207,2.362v3.542c0,0.573-0.133,1.003-0.398,1.291c-0.266,0.285-0.609,0.428-1.03,0.428
				c-0.408,0-0.742-0.147-1.005-0.445c-0.262-0.296-0.393-0.722-0.393-1.274v-8.172c0-0.539,0.117-0.941,0.352-1.208
				c0.235-0.264,0.556-0.398,0.963-0.398c0.249,0,0.474,0.06,0.675,0.177c0.199,0.119,0.36,0.294,0.481,0.528
				C324.866,760.722,324.926,761.01,324.926,761.349z"/>
			<path style="fill:#142C42;" d="M342.127,766.228h-5.53c0.008,0.641,0.136,1.208,0.389,1.697c0.252,0.49,0.586,0.861,1.005,1.107
				c0.416,0.249,0.878,0.373,1.382,0.373c0.339,0,0.647-0.038,0.928-0.117c0.279-0.081,0.549-0.204,0.813-0.375
				c0.261-0.168,0.503-0.349,0.725-0.543c0.22-0.194,0.506-0.458,0.859-0.788c0.145-0.124,0.352-0.188,0.621-0.188
				c0.29,0,0.525,0.081,0.704,0.241c0.179,0.16,0.269,0.381,0.269,0.673c0,0.255-0.099,0.552-0.3,0.895
				c-0.201,0.343-0.503,0.671-0.907,0.984c-0.404,0.315-0.91,0.575-1.522,0.782c-0.611,0.209-1.314,0.311-2.108,0.311
				c-1.815,0-3.227-0.518-4.236-1.553c-1.007-1.035-1.512-2.441-1.512-4.215c0-0.837,0.125-1.612,0.373-2.326
				c0.249-0.716,0.612-1.327,1.088-1.838c0.476-0.511,1.063-0.903,1.76-1.176c0.697-0.273,1.471-0.409,2.32-0.409
				c1.104,0,2.051,0.232,2.842,0.699c0.791,0.466,1.383,1.069,1.777,1.806c0.393,0.739,0.59,1.493,0.59,2.258
				c0,0.714-0.203,1.173-0.611,1.384C343.44,766.121,342.867,766.228,342.127,766.228z M336.597,764.622h5.126
				c-0.069-0.967-0.33-1.691-0.782-2.17c-0.452-0.481-1.048-0.72-1.786-0.72c-0.705,0-1.284,0.243-1.736,0.728
				C336.967,762.948,336.694,763.668,336.597,764.622z"/>
			<path style="fill:#142C42;" d="M353.653,769.665v-0.281c-0.38,0.434-0.754,0.79-1.123,1.061c-0.37,0.275-0.769,0.481-1.201,0.622
				c-0.431,0.145-0.902,0.213-1.413,0.213c-0.678,0-1.304-0.143-1.88-0.428c-0.577-0.288-1.076-0.696-1.497-1.229
				c-0.422-0.53-0.741-1.154-0.958-1.874c-0.218-0.718-0.326-1.495-0.326-2.33c0-1.768,0.431-3.146,1.294-4.134
				c0.863-0.986,1.999-1.48,3.408-1.48c0.815,0,1.502,0.141,2.061,0.42c0.559,0.279,1.105,0.711,1.636,1.288v-4.172
				c0-0.581,0.116-1.018,0.348-1.316c0.231-0.296,0.561-0.445,0.989-0.445c0.428,0,0.757,0.136,0.989,0.409
				c0.231,0.275,0.347,0.675,0.347,1.208v12.47c0,0.539-0.124,0.941-0.373,1.212c-0.249,0.268-0.569,0.403-0.963,0.403
				c-0.387,0-0.706-0.138-0.958-0.417C353.779,770.581,353.653,770.183,353.653,769.665z M348.092,765.512
				c0,0.767,0.118,1.418,0.357,1.957c0.238,0.539,0.564,0.944,0.98,1.216c0.414,0.273,0.866,0.411,1.356,0.411
				c0.498,0,0.952-0.13,1.362-0.39c0.411-0.258,0.74-0.656,0.984-1.19c0.246-0.534,0.368-1.206,0.368-2.004
				c0-0.754-0.122-1.401-0.368-1.945c-0.244-0.541-0.576-0.954-0.994-1.242c-0.419-0.285-0.875-0.428-1.373-0.428
				c-0.517,0-0.98,0.147-1.388,0.439c-0.407,0.294-0.723,0.713-0.948,1.263C348.203,764.149,348.092,764.786,348.092,765.512z"/>
			<path style="fill:#142C42;" d="M365.209,757.196v4.317c0.531-0.552,1.073-0.975,1.626-1.267c0.552-0.294,1.236-0.441,2.051-0.441
				c0.939,0,1.762,0.224,2.471,0.667c0.706,0.447,1.255,1.093,1.646,1.938c0.39,0.846,0.586,1.849,0.586,3.009
				c0,0.856-0.109,1.64-0.326,2.355c-0.218,0.716-0.534,1.335-0.948,1.859c-0.415,0.524-0.917,0.931-1.507,1.218
				c-0.591,0.285-1.242,0.428-1.953,0.428c-0.435,0-0.845-0.051-1.227-0.156c-0.384-0.102-0.71-0.238-0.979-0.409
				c-0.268-0.168-0.498-0.343-0.688-0.522c-0.19-0.179-0.441-0.449-0.751-0.809v0.281c0,0.53-0.128,0.933-0.383,1.207
				c-0.254,0.273-0.579,0.407-0.973,0.407c-0.4,0-0.72-0.134-0.958-0.407c-0.238-0.275-0.357-0.677-0.357-1.207v-12.346
				c0-0.573,0.115-1.007,0.346-1.299c0.232-0.294,0.555-0.441,0.969-0.441c0.436,0,0.77,0.141,1.005,0.42
				C365.092,756.28,365.209,756.676,365.209,757.196z M365.344,765.595c0,1.124,0.257,1.989,0.771,2.592
				c0.514,0.605,1.19,0.909,2.025,0.909c0.711,0,1.324-0.309,1.838-0.928c0.514-0.618,0.771-1.504,0.771-2.656
				c0-0.745-0.106-1.389-0.32-1.927c-0.215-0.539-0.518-0.954-0.911-1.248c-0.394-0.292-0.853-0.439-1.378-0.439
				c-0.538,0-1.019,0.147-1.44,0.439c-0.421,0.294-0.752,0.718-0.995,1.274C365.465,764.166,365.344,764.829,365.344,765.595z"/>
			<path style="fill:#142C42;" d="M377.254,771.633l0.259-0.633l-3.48-8.762c-0.214-0.503-0.322-0.871-0.322-1.099
				c0-0.241,0.063-0.464,0.187-0.671c0.125-0.209,0.295-0.375,0.512-0.498c0.218-0.126,0.444-0.187,0.679-0.187
				c0.407,0,0.714,0.13,0.922,0.39c0.208,0.258,0.39,0.628,0.548,1.112l2.393,6.96l2.268-6.472c0.179-0.524,0.341-0.935,0.487-1.233
				c0.145-0.296,0.298-0.496,0.46-0.599c0.162-0.104,0.392-0.158,0.689-0.158c0.215,0,0.419,0.057,0.616,0.172
				c0.197,0.113,0.348,0.266,0.455,0.46c0.107,0.194,0.161,0.396,0.161,0.611c-0.029,0.13-0.072,0.318-0.135,0.56
				c-0.063,0.241-0.138,0.488-0.227,0.735l-3.687,9.652c-0.318,0.85-0.629,1.514-0.933,1.998c-0.304,0.484-0.705,0.856-1.206,1.114
				c-0.501,0.26-1.176,0.39-2.025,0.39c-0.828,0-1.45-0.089-1.863-0.268c-0.416-0.181-0.622-0.509-0.622-0.986
				c0-0.324,0.098-0.575,0.296-0.75c0.196-0.177,0.488-0.266,0.874-0.266c0.152,0,0.301,0.021,0.446,0.064
				c0.18,0.041,0.335,0.062,0.465,0.062c0.324,0,0.58-0.047,0.767-0.145c0.186-0.096,0.353-0.264,0.502-0.503
				C376.889,772.447,377.061,772.095,377.254,771.633z"/>
		</g>
		<g>
			<path style="fill:#142C42;" d="M418.213,760.028h0.675v-0.848c0-0.888,0.109-1.589,0.334-2.113
				c0.221-0.522,0.605-0.901,1.142-1.139c0.535-0.236,1.267-0.356,2.198-0.356c1.657,0,2.479,0.4,2.479,1.214
				c0,0.26-0.087,0.486-0.262,0.671c-0.168,0.185-0.375,0.279-0.609,0.279c-0.109,0-0.303-0.019-0.575-0.064
				c-0.258-0.036-0.492-0.062-0.679-0.062c-0.509,0-0.835,0.153-0.986,0.454c-0.138,0.3-0.213,0.728-0.213,1.291v0.673h0.69
				c1.08,0,1.614,0.324,1.614,0.978c0,0.456-0.138,0.752-0.428,0.877c-0.285,0.124-0.679,0.185-1.186,0.185h-0.69v7.492
				c0,0.558-0.132,0.982-0.403,1.274c-0.264,0.298-0.605,0.443-1.029,0.443c-0.4,0-0.73-0.145-1.001-0.443
				c-0.266-0.292-0.396-0.716-0.396-1.274v-7.492h-0.78c-0.424,0-0.743-0.092-0.973-0.285c-0.228-0.185-0.343-0.434-0.343-0.739
				C416.793,760.365,417.266,760.028,418.213,760.028"/>
			<path style="fill:#142C42;" d="M427.471,767.197v2.364c0,0.571-0.145,1.003-0.409,1.286c-0.268,0.29-0.609,0.43-1.022,0.43
				c-0.415,0-0.75-0.143-1.01-0.437c-0.258-0.287-0.394-0.716-0.394-1.28v-7.876c0-1.272,0.458-1.906,1.376-1.906
				c0.473,0,0.809,0.147,1.018,0.445c0.207,0.298,0.322,0.735,0.345,1.316c0.336-0.581,0.681-1.018,1.035-1.316
				c0.362-0.298,0.831-0.445,1.427-0.445c0.598,0,1.169,0.147,1.729,0.445c0.562,0.298,0.841,0.694,0.841,1.182
				c0,0.343-0.121,0.632-0.356,0.852c-0.241,0.228-0.496,0.341-0.771,0.341c-0.109,0-0.36-0.068-0.754-0.196
				c-0.398-0.123-0.752-0.19-1.05-0.19c-0.415,0-0.756,0.113-1.016,0.326c-0.264,0.224-0.471,0.541-0.615,0.967
				c-0.141,0.43-0.239,0.944-0.298,1.531C427.495,765.627,427.471,766.349,427.471,767.197"/>
			<path style="fill:#142C42;" d="M440.469,766.224h-5.533c0.011,0.641,0.136,1.212,0.388,1.7c0.256,0.488,0.588,0.858,1.007,1.109
				c0.42,0.247,0.877,0.371,1.384,0.371c0.339,0,0.645-0.036,0.926-0.122c0.277-0.077,0.549-0.202,0.811-0.373
				c0.264-0.166,0.503-0.347,0.724-0.545c0.222-0.19,0.509-0.454,0.863-0.784c0.147-0.124,0.354-0.19,0.62-0.19
				c0.292,0,0.524,0.081,0.707,0.243c0.181,0.16,0.266,0.381,0.266,0.673c0,0.256-0.098,0.554-0.292,0.892
				c-0.204,0.347-0.505,0.673-0.911,0.988c-0.409,0.311-0.916,0.575-1.525,0.779c-0.609,0.206-1.314,0.311-2.106,0.311
				c-1.821,0-3.231-0.515-4.238-1.55c-1.007-1.037-1.516-2.445-1.516-4.217c0-0.837,0.128-1.612,0.379-2.328
				c0.245-0.718,0.607-1.327,1.088-1.84c0.475-0.513,1.059-0.903,1.759-1.176c0.694-0.273,1.467-0.409,2.319-0.409
				c1.103,0,2.051,0.234,2.843,0.705c0.788,0.46,1.389,1.065,1.776,1.804c0.394,0.741,0.59,1.491,0.59,2.262
				c0,0.707-0.205,1.167-0.611,1.38C441.781,766.119,441.208,766.224,440.469,766.224 M434.936,764.616h5.126
				c-0.068-0.965-0.324-1.689-0.777-2.166c-0.456-0.481-1.046-0.72-1.789-0.72c-0.705,0-1.284,0.241-1.736,0.731
				C435.309,762.946,435.032,763.664,434.936,764.616"/>
			<path style="fill:#142C42;" d="M452.232,766.224h-5.531c0.006,0.641,0.136,1.212,0.385,1.7c0.253,0.488,0.588,0.858,1.005,1.109
				c0.417,0.247,0.878,0.371,1.386,0.371c0.334,0,0.645-0.036,0.92-0.122c0.283-0.077,0.552-0.202,0.818-0.373
				c0.264-0.166,0.503-0.347,0.724-0.545c0.217-0.19,0.507-0.454,0.86-0.784c0.147-0.124,0.356-0.19,0.62-0.19
				c0.292,0,0.526,0.081,0.709,0.243c0.179,0.16,0.262,0.381,0.262,0.673c0,0.256-0.096,0.554-0.298,0.892
				c-0.194,0.347-0.496,0.673-0.905,0.988c-0.405,0.311-0.916,0.575-1.523,0.779c-0.607,0.206-1.316,0.311-2.109,0.311
				c-1.819,0-3.227-0.515-4.238-1.55c-1.007-1.037-1.514-2.445-1.514-4.217c0-0.837,0.126-1.612,0.379-2.328
				c0.247-0.718,0.609-1.327,1.086-1.84c0.475-0.513,1.061-0.903,1.759-1.176c0.696-0.273,1.474-0.409,2.321-0.409
				c1.101,0,2.049,0.234,2.849,0.705c0.786,0.46,1.38,1.065,1.768,1.804c0.392,0.741,0.594,1.491,0.594,2.262
				c0,0.707-0.209,1.167-0.611,1.38C453.541,766.119,452.968,766.224,452.232,766.224 M446.701,764.616h5.126
				c-0.07-0.965-0.332-1.689-0.779-2.166c-0.46-0.481-1.05-0.72-1.791-0.72c-0.705,0-1.282,0.241-1.738,0.731
				C447.069,762.946,446.792,763.664,446.701,764.616"/>
			<path style="fill:#142C42;" d="M458.425,761.37v0.339c0.53-0.656,1.084-1.137,1.663-1.444c0.564-0.311,1.218-0.466,1.942-0.466
				c0.867,0,1.674,0.228,2.407,0.673c0.733,0.451,1.308,1.107,1.733,1.97c0.424,0.867,0.639,1.887,0.639,3.069
				c0,0.867-0.124,1.67-0.366,2.4c-0.245,0.728-0.586,1.338-1.014,1.832c-0.428,0.49-0.933,0.873-1.514,1.139
				c-0.592,0.264-1.212,0.396-1.885,0.396c-0.805,0-1.487-0.162-2.034-0.488c-0.547-0.318-1.071-0.799-1.572-1.423v4.245
				c0,1.237-0.454,1.863-1.357,1.863c-0.535,0-0.882-0.16-1.059-0.479c-0.166-0.326-0.256-0.788-0.256-1.408v-12.206
				c0-0.539,0.117-0.937,0.349-1.208c0.234-0.26,0.558-0.396,0.965-0.396c0.402,0,0.726,0.136,0.977,0.407
				C458.301,760.463,458.425,760.852,458.425,761.37 M463.969,765.478c0-0.748-0.115-1.389-0.343-1.923
				c-0.228-0.537-0.543-0.946-0.944-1.229c-0.4-0.288-0.854-0.432-1.344-0.432c-0.779,0-1.438,0.309-1.972,0.92
				c-0.537,0.618-0.807,1.521-0.807,2.718c0,1.12,0.266,2,0.803,2.624c0.53,0.626,1.184,0.937,1.976,0.937
				c0.466,0,0.905-0.138,1.306-0.407c0.405-0.275,0.724-0.684,0.963-1.229C463.847,766.909,463.969,766.249,463.969,765.478"/>
			<path style="fill:#142C42;" d="M469.657,758.463c-0.396,0-0.73-0.126-1.007-0.366c-0.283-0.243-0.422-0.579-0.422-1.02
				c0-0.403,0.143-0.73,0.432-0.992c0.285-0.255,0.618-0.388,0.997-0.388c0.371,0,0.692,0.115,0.973,0.347
				c0.283,0.239,0.426,0.584,0.426,1.033c0,0.435-0.138,0.775-0.411,1.02C470.368,758.337,470.04,758.463,469.657,758.463
				 M471.056,761.383v8.18c0,0.562-0.134,0.99-0.402,1.278c-0.273,0.294-0.611,0.437-1.027,0.437c-0.415,0-0.748-0.145-1.012-0.443
				c-0.255-0.3-0.388-0.724-0.388-1.271v-8.099c0-0.556,0.132-0.975,0.388-1.259c0.264-0.287,0.596-0.426,1.012-0.426
				c0.415,0,0.754,0.138,1.027,0.426C470.922,760.488,471.056,760.884,471.056,761.383"/>
			<path style="fill:#142C42;" d="M480.172,769.987l-2.49-4.106l-1.536,1.448v2.253c0,0.543-0.145,0.961-0.432,1.252
				c-0.281,0.298-0.618,0.443-0.988,0.443c-0.434,0-0.779-0.143-1.026-0.437c-0.247-0.287-0.375-0.716-0.375-1.28v-12.063
				c0-0.626,0.126-1.103,0.362-1.433c0.243-0.332,0.594-0.492,1.039-0.492c0.435,0,0.777,0.149,1.035,0.447
				c0.255,0.296,0.385,0.735,0.385,1.312v6.862l3.18-3.34c0.394-0.411,0.69-0.698,0.901-0.85c0.207-0.151,0.458-0.226,0.752-0.226
				c0.356,0,0.647,0.113,0.89,0.336c0.23,0.224,0.349,0.507,0.349,0.843c0,0.413-0.385,0.969-1.15,1.659l-1.501,1.376l2.898,4.562
				c0.211,0.341,0.371,0.592,0.462,0.769c0.091,0.175,0.143,0.349,0.143,0.505c0,0.449-0.126,0.801-0.373,1.063
				c-0.245,0.258-0.571,0.385-0.965,0.385c-0.345,0-0.616-0.087-0.801-0.279C480.747,770.811,480.489,770.472,480.172,769.987"/>
			<path style="fill:#142C42;" d="M486.318,771.277c-0.428,0-0.794-0.136-1.105-0.415c-0.311-0.271-0.468-0.66-0.468-1.161
				c0-0.42,0.151-0.784,0.447-1.084c0.3-0.304,0.662-0.458,1.099-0.458c0.435,0,0.803,0.153,1.116,0.449
				c0.305,0.3,0.46,0.669,0.46,1.093c0,0.494-0.155,0.882-0.46,1.156C487.093,771.141,486.731,771.277,486.318,771.277"/>
			<path style="fill:#142C42;" d="M500.383,767.778c0,0.349-0.106,0.728-0.317,1.127c-0.209,0.405-0.533,0.784-0.967,1.146
				c-0.43,0.362-0.971,0.656-1.629,0.875c-0.656,0.221-1.397,0.334-2.215,0.334c-1.751,0-3.116-0.511-4.098-1.527
				c-0.975-1.02-1.467-2.387-1.467-4.1c0-1.165,0.224-2.187,0.675-3.08c0.445-0.888,1.095-1.578,1.942-2.066
				c0.85-0.488,1.872-0.731,3.048-0.731c0.735,0,1.404,0.106,2.019,0.322c0.611,0.213,1.127,0.492,1.555,0.828
				c0.422,0.343,0.747,0.701,0.969,1.082c0.226,0.383,0.337,0.741,0.337,1.076c0,0.336-0.124,0.624-0.375,0.858
				c-0.256,0.234-0.562,0.354-0.914,0.354c-0.239,0-0.435-0.062-0.59-0.181c-0.158-0.121-0.332-0.315-0.522-0.59
				c-0.347-0.522-0.705-0.918-1.086-1.178c-0.375-0.264-0.852-0.394-1.433-0.394c-0.831,0-1.508,0.324-2.021,0.978
				c-0.509,0.649-0.767,1.548-0.767,2.677c0,0.532,0.068,1.024,0.2,1.469c0.128,0.443,0.317,0.824,0.566,1.137
				c0.251,0.313,0.549,0.552,0.901,0.714c0.354,0.168,0.743,0.247,1.161,0.247c0.569,0,1.054-0.132,1.457-0.394
				c0.411-0.262,0.767-0.662,1.076-1.201c0.172-0.317,0.358-0.564,0.556-0.745c0.198-0.179,0.445-0.273,0.737-0.273
				c0.345,0,0.632,0.134,0.856,0.396C500.266,767.201,500.383,767.482,500.383,767.778"/>
			<path style="fill:#142C42;" d="M512.584,765.531c0,0.839-0.132,1.619-0.388,2.332c-0.268,0.711-0.645,1.323-1.144,1.829
				c-0.496,0.511-1.093,0.903-1.78,1.178c-0.697,0.27-1.472,0.409-2.332,0.409c-0.856,0-1.627-0.138-2.313-0.417
				c-0.679-0.271-1.276-0.669-1.772-1.18c-0.503-0.52-0.882-1.127-1.148-1.827c-0.249-0.703-0.381-1.478-0.381-2.324
				c0-0.858,0.134-1.642,0.39-2.353c0.264-0.713,0.643-1.322,1.133-1.825c0.492-0.503,1.084-0.89,1.778-1.167
				c0.703-0.271,1.472-0.407,2.313-0.407c0.856,0,1.634,0.136,2.332,0.415c0.696,0.275,1.291,0.671,1.793,1.178
				c0.498,0.518,0.875,1.122,1.133,1.823C512.454,763.904,512.584,764.677,512.584,765.531 M509.745,765.531
				c0-1.154-0.256-2.051-0.76-2.692c-0.505-0.649-1.188-0.969-2.044-0.969c-0.554,0-1.042,0.145-1.463,0.43
				c-0.422,0.285-0.743,0.707-0.971,1.269c-0.228,0.56-0.343,1.214-0.343,1.961c0,0.739,0.111,1.382,0.337,1.934
				c0.228,0.556,0.547,0.977,0.967,1.271c0.42,0.29,0.909,0.441,1.474,0.441c0.856,0,1.54-0.324,2.044-0.973
				C509.49,767.561,509.745,766.667,509.745,765.531"/>
			<path style="fill:#142C42;" d="M523.371,765.738v3.759c0,0.596-0.132,1.037-0.403,1.338c-0.273,0.298-0.624,0.445-1.067,0.445
				c-0.428,0-0.777-0.147-1.037-0.445c-0.268-0.3-0.404-0.741-0.404-1.338v-4.504c0-0.714-0.023-1.267-0.07-1.663
				c-0.049-0.386-0.183-0.714-0.394-0.963c-0.215-0.256-0.556-0.383-1.016-0.383c-0.926,0-1.533,0.317-1.827,0.961
				c-0.292,0.628-0.443,1.542-0.443,2.735v3.818c0,0.586-0.134,1.031-0.394,1.333c-0.273,0.298-0.62,0.449-1.052,0.449
				c-0.432,0-0.782-0.151-1.054-0.449c-0.275-0.302-0.411-0.748-0.411-1.333v-8.091c0-0.533,0.121-0.937,0.366-1.212
				c0.249-0.279,0.573-0.415,0.969-0.415c0.39,0,0.711,0.134,0.973,0.388c0.258,0.26,0.385,0.618,0.385,1.073v0.266
				c0.494-0.584,1.02-1.016,1.576-1.286c0.562-0.283,1.18-0.422,1.868-0.422c0.709,0,1.32,0.143,1.829,0.426
				c0.511,0.283,0.931,0.713,1.265,1.282c0.479-0.575,0.99-1.005,1.538-1.286c0.545-0.281,1.148-0.422,1.812-0.422
				c0.769,0,1.44,0.156,2,0.458c0.556,0.302,0.973,0.741,1.25,1.303c0.241,0.515,0.36,1.318,0.36,2.417v5.52
				c0,0.596-0.132,1.037-0.4,1.338c-0.268,0.298-0.626,0.445-1.067,0.445c-0.43,0-0.779-0.151-1.052-0.449
				c-0.273-0.302-0.411-0.748-0.411-1.333v-4.756c0-0.609-0.025-1.095-0.075-1.459c-0.051-0.369-0.194-0.677-0.417-0.924
				c-0.232-0.247-0.579-0.375-1.039-0.375c-0.373,0-0.726,0.117-1.063,0.337c-0.334,0.215-0.596,0.519-0.786,0.886
				C523.478,763.683,523.371,764.528,523.371,765.738"/>
		</g>
		<g>
			<path style="fill:#142C42;" d="M391.751,764.846c-0.002-0.004-0.002-0.011-0.002-0.019
				C391.749,764.835,391.749,764.841,391.751,764.846z"/>
			<path style="fill:#142C42;" d="M391.894,765.751c0.002,0,0.002,0,0.003,0c-0.054-0.258-0.096-0.513-0.129-0.767
				C391.801,765.24,391.843,765.495,391.894,765.751z"/>
			<path style="fill:#142C42;" d="M392.83,768.375c-0.006-0.011-0.012-0.023-0.019-0.036
				C392.818,768.351,392.824,768.364,392.83,768.375z"/>
			<path style="fill:#142C42;" d="M392.74,768.2c-0.024-0.049-0.048-0.098-0.071-0.147
				C392.693,768.104,392.716,768.151,392.74,768.2z"/>
			<path style="fill:#142C42;" d="M392.157,766.76c0.138,0.437,0.305,0.86,0.498,1.263c-0.197-0.411-0.36-0.835-0.495-1.263
				C392.16,766.76,392.158,766.76,392.157,766.76z"/>
			<path style="fill:#142C42;" d="M402.697,754.012c0.546,0,0.95,0.043,1.411,0.121l0.132-0.833c0,0-1.277-0.392-2.956-0.256
				l-0.132-0.451c0.522-0.111,0.914-0.575,0.914-1.129c0-0.635-0.517-1.148-1.153-1.148c-0.636,0-1.151,0.513-1.151,1.148
				c0,0.554,0.391,1.018,0.911,1.129l0.146,0.505c-1.782,0.245-3.2,0.939-3.2,0.939l0.251,0.769
				c1.078-0.358,2.013-0.577,2.861-0.669C401.562,754.05,402.187,754.012,402.697,754.012z"/>
			<path style="fill:#142C42;" d="M392.809,758.218l0.007-0.008c0.042-0.053,0.082-0.104,0.124-0.156l-0.341-0.245l-0.532-0.39
				c-0.03,0.043-0.867,0.812-1.528,2.234c-0.028-0.045-0.061-0.09-0.098-0.13c-0.198-0.217-0.475-0.328-0.827-0.322
				c-0.004,0-0.01,0-0.016,0c-0.218,0-0.367-0.072-0.465-0.16c0.097-0.123,0.156-0.279,0.156-0.451c0-0.4-0.327-0.728-0.73-0.728
				c-0.402,0-0.729,0.328-0.729,0.728c0,0.405,0.327,0.731,0.729,0.731c0.063,0,0.124-0.011,0.182-0.023
				c0.179,0.2,0.464,0.373,0.881,0.364c0.215-0.002,0.372,0.053,0.477,0.17c0.121,0.132,0.162,0.322,0.174,0.466
				c-0.001,0.002-0.001,0.004-0.003,0.004c-0.475,1.297-0.339,2.911-0.339,2.911l1.153,0.047c0.023-0.588,0.108-1.617,0.405-2.432
				C392.061,759.249,392.779,758.26,392.809,758.218z"/>
			<path style="fill:#142C42;" d="M412.727,754.974c-0.4,0-0.728,0.326-0.728,0.73c0,0.062,0.009,0.121,0.026,0.179
				c-0.2,0.181-0.375,0.466-0.368,0.884c0.004,0.215-0.051,0.37-0.168,0.477c-0.092,0.081-0.209,0.126-0.322,0.153
				c-0.858-1.203-1.915-1.936-1.915-1.936l-0.828,0.886c0.626,0.569,1.265,1.282,1.885,2.17c0.43,0.615,0.871,1.408,1.24,2.198
				l1.116-0.53c0,0-0.509-1.261-1.227-2.39c0.123-0.045,0.249-0.113,0.36-0.211c0.219-0.196,0.326-0.475,0.319-0.826
				c-0.002-0.226,0.073-0.379,0.162-0.481c0.126,0.096,0.281,0.155,0.449,0.155c0.405,0,0.73-0.326,0.73-0.728
				C413.457,755.3,413.132,754.974,412.727,754.974z"/>
			<path style="fill:#142C42;" d="M409.831,765.01c-1.538,0.747-4.066,1.738-7.395,2.202c-1.307,0.181-2.573,0.247-3.738,0.247
				c-1.516,0-2.857-0.113-3.885-0.243c-1.173-0.147-2.091-0.328-2.652-0.456c0.135,0.428,0.298,0.852,0.495,1.263
				c0.004,0.011,0.008,0.023,0.014,0.03c0.023,0.049,0.047,0.098,0.071,0.147c0.023,0.047,0.047,0.094,0.071,0.138
				c0.007,0.013,0.012,0.026,0.019,0.036c0.33,0.622,0.727,1.193,1.178,1.689c1.57,1.717,3.17,1.989,3.185,1.991l0.025,0.002
				l0.023,0.009c0.014,0.006,1.433,0.464,3.589,0.464c2.121,0,4.203-0.428,6.186-1.274c1.47-0.752,2.86-1.893,3.548-2.911
				c0.532-0.788,0.918-1.627,1.146-2.5c0.121-0.464,0.217-1.208,0.16-1.991C411.439,764.145,410.755,764.558,409.831,765.01z"/>
			<path style="fill:#142C42;" d="M393.302,758.582c-0.045,0.066-0.711,1.01-1.238,2.458c-0.395,1.084-0.377,2.664-0.377,2.681
				v0.004c0,0.371,0.021,0.737,0.062,1.101c0,0.008,0,0.015,0.002,0.019c0.004,0.047,0.012,0.092,0.017,0.138
				c0.033,0.253,0.075,0.509,0.129,0.767c0.764,0.194,5.32,1.257,10.412,0.547c3.192-0.445,5.616-1.389,7.087-2.102
				c1.223-0.592,2.008-1.129,2.311-1.35c-0.302-1.12-1.135-2.879-1.9-3.976c-2.187-3.124-4.545-3.925-5.755-4.125
				c-0.463-0.074-0.832-0.119-1.356-0.119c-0.488,0-1.093,0.041-1.901,0.126c-0.81,0.083-1.714,0.296-2.761,0.65
				c-1.47,0.492-2.8,1.263-3.846,2.232l-0.036,0.034C393.998,757.809,393.674,758.109,393.302,758.582z M406.681,757.856
				c1.048,0,1.902,0.852,1.902,1.9c0,1.05-0.854,1.902-1.902,1.902s-1.9-0.852-1.9-1.902
				C404.781,758.708,405.633,757.856,406.681,757.856z M397.694,757.779c1.697,0,3.072,1.376,3.072,3.073
				c0,1.695-1.374,3.069-3.072,3.069c-1.695,0-3.07-1.374-3.07-3.069C394.624,759.155,395.999,757.779,397.694,757.779z"/>
		</g>
	</g>
</g>
<g id="Objects">
	<path style="fill:#142C42;stroke:#FFFFFF;stroke-width:2;stroke-linecap:round;stroke-linejoin:round;stroke-miterlimit:10;" d="
		M606.055,448.066c0,0-17.621,51.601-55.338,58.268l21.616,25.296c0,0,33.66-35.296,39.83-51.296L606.055,448.066z"/>
	<path style="fill:#142C42;stroke:#FFFFFF;stroke-width:2;stroke-linecap:round;stroke-linejoin:round;stroke-miterlimit:10;" d="
		M686.356,448.066c0,0,17.621,51.601,55.338,58.268l-21.616,25.296c0,0-33.66-35.296-39.83-51.296L686.356,448.066z"/>
	<g>
		<ellipse style="fill:#FA5A1A;" cx="171.201" cy="709.791" rx="110.748" ry="12.01"/>
		
			<polygon style="fill:#FFFFFF;stroke:#FA5A1A;stroke-width:2;stroke-linecap:round;stroke-linejoin:round;stroke-miterlimit:10;" points="
			98.907,574.025 91.984,588.884 120.078,588.884 116.974,574.025 		"/>
		
			<line style="fill:#FFFFFF;stroke:#FA5A1A;stroke-width:2;stroke-linecap:round;stroke-linejoin:round;stroke-miterlimit:10;" x1="102.791" y1="581.454" x2="101.102" y2="588.884"/>
		
			<rect x="75.916" y="588.135" style="fill:#142C42;stroke:#FFFFFF;stroke-width:2;stroke-linecap:round;stroke-linejoin:round;stroke-miterlimit:10;" width="84.733" height="62.542"/>
		<g>
			<path style="fill:#142C42;stroke:#FFFFFF;stroke-width:2;stroke-linecap:round;stroke-linejoin:round;stroke-miterlimit:10;" d="
				M129.355,575.462v126.642l-16.472,4.995c-1.514,0.459-1.183,2.691,0.399,2.691h41.8l15.189-134.329H129.355z"/>
			<path style="fill:#142C42;stroke:#FFFFFF;stroke-width:2;stroke-linecap:round;stroke-linejoin:round;stroke-miterlimit:10;" d="
				M211.187,575.462v126.642l16.472,4.995c1.514,0.459,1.183,2.691-0.399,2.691h-41.8l-15.189-134.329H211.187z"/>
		</g>
		<g>
			<path style="fill:#142C42;stroke:#FFFFFF;stroke-width:2;stroke-linecap:round;stroke-linejoin:round;stroke-miterlimit:10;" d="
				M130.716,448.066c0,0-25.107,24.374-35.53,127.397h24.893l8.073-85.843L130.716,448.066z"/>
			<polygon style="fill:#FFFFFF;stroke:#FA5A1A;stroke-width:2;stroke-miterlimit:10;" points="188.927,449.411 170.969,460.093 
				151.615,449.411 151.615,428.513 188.927,428.513 			"/>
			<path style="fill:#FFFFFF;stroke:#FA5A1A;stroke-width:2;stroke-linecap:round;stroke-linejoin:round;stroke-miterlimit:10;" d="
				M276.879,393.021c-8.651-11.26-20.307-1.522-20.307-1.522l-8.968-3.304c-1.591-0.586-3.377-0.225-4.615,0.934l-2.429,2.272
				c-0.054,0.05,12.984,8.916,12.984,8.916l19.144,6.55l16.106-10.39c0,0-0.56-18.168-21.476-35.529
				c-0.778-0.645-1.915-0.611-2.669,0.061l0,0c-0.818,0.729-0.924,1.968-0.239,2.823c2.757,3.44,8.05,9.967,10.192,13.693
				c0,0-10.35-11.602-17.395-16.5c-1.302-0.905-3.07-0.7-4.135,0.475l0,0c-0.893,0.985-0.791,2.347,0.131,3.09
				c3.465,2.794,11.855,10.224,14.418,14.649c0,0-11.886-8.843-17.392-12.009c-1.27-0.73-2.89-0.272-3.608,1.005l0,0
				c-0.67,1.192-0.321,2.697,0.805,3.473l15.035,10.722l-14.714-6.152c-1.544-0.646-3.308,0.189-3.787,1.793l0,0
				c-0.366,1.225,0.139,2.544,1.23,3.211l13.943,8.523"/>
			<g>
				
					<path style="fill:#142C42;stroke:#FFFFFF;stroke-width:2;stroke-linecap:round;stroke-linejoin:round;stroke-miterlimit:10;" d="
					M274.378,445.585c14.848-14.209-4.949-37.656-4.949-37.656l20.698-13.352c0,0,30.507,28.512,10.21,56.886
					c-1.732,2.442-3.838,4.87-6.358,7.281c-6.692,6.404-14.772,10.147-23.363,12.052c-32.39,7.205-72.057-11.607-72.057-11.607
					l11.541-9.355C210.1,449.833,259.523,459.801,274.378,445.585z"/>
			</g>
			
				<polygon style="fill:#142C42;stroke:#FFFFFF;stroke-width:2;stroke-linecap:round;stroke-linejoin:round;stroke-miterlimit:10;" points="
				220.464,576.424 120.078,576.424 130.716,448.066 209.826,448.066 			"/>
			<g>
				<path style="fill:#FFFFFF;stroke:#FA5A1A;stroke-width:2;stroke-miterlimit:10;" d="M131.095,339.199l0,95.697
					c0,4.296,3.465,7.766,7.739,7.766l63.974,0c7.374,0,13.273-6.579,12.45-13.939l-10.004-89.524L131.095,339.199z"/>
				<path style="fill:#142C42;" d="M130.066,392.404c-19.216-54.448,0-62.375,0-62.375c5.765-20.658,36.511-5.525,51.404-5.765
					c9.499-0.153,11.543-5.291,11.777-8.991c0.114-1.804,2.18-2.812,3.688-1.815c8.401,5.553,4.953,15.851,4.953,15.851
					c3.403-0.901,5.263-2.594,6.275-4.263c1.007-1.661,3.401-1.606,4.256,0.138c5.886,12.008-6.604,17.335-6.604,17.335h-71.411
					c18.749,30.746,1.034,49.884,1.034,49.884H130.066z"/>
				<polyline style="fill:none;stroke:#FA5A1A;stroke-width:2;stroke-linecap:round;stroke-miterlimit:10;" points="185.103,374.58 
					192.836,410.229 182.65,410.229 				"/>
				<g>
					<g>
						<g>
							<path style="fill:#FFFFFF;stroke:#142C42;stroke-width:2;stroke-miterlimit:10;" d="M173.522,403.468h-13.909
								c-3.758,0-6.805-3.047-6.805-6.805v-11.834h27.519v11.834C180.327,400.421,177.28,403.468,173.522,403.468z"/>
							<circle style="fill:#142C42;" cx="166.568" cy="394.149" r="2.948"/>
						</g>
						<g>
							<path style="fill:#FFFFFF;stroke:#142C42;stroke-width:2;stroke-miterlimit:10;" d="M210.672,403.468h-13.909
								c-3.758,0-6.805-3.047-6.805-6.805v-11.834h27.519v11.834C217.477,400.421,214.431,403.468,210.672,403.468z"/>
							<circle style="fill:#142C42;" cx="203.718" cy="394.149" r="2.948"/>
						</g>
						<path style="fill:none;stroke:#142C42;stroke-width:2;stroke-miterlimit:10;" d="M180.248,389.324c0,0,4.422-4.021,9.711,0"/>
					</g>
					
						<line style="fill:none;stroke:#142C42;stroke-width:2;stroke-miterlimit:10;" x1="152.808" y1="389.324" x2="132.173" y2="389.324"/>
				</g>
				<g>
					<path style="fill:#FFFFFF;stroke:#FA5A1A;stroke-width:2;stroke-linecap:round;stroke-miterlimit:10;" d="M136.386,394.484
						c0,0-6.751-16.886-16.509-14.206s-7.786,36.453,12.939,36.989"/>
					<path style="fill:none;stroke:#FA5A1A;stroke-width:2;stroke-linecap:round;stroke-miterlimit:10;" d="M121.537,390.93
						c0,0,10.454,1.34,12.866,13.938"/>
					<path style="fill:none;stroke:#FA5A1A;stroke-width:2;stroke-linecap:round;stroke-miterlimit:10;" d="M131.719,397.899
						c0,0-5.601-0.536-6.417,6.969"/>
				</g>
				<g>
					<polygon style="fill:#142C42;" points="154.238,371.989 176.55,365.288 176.55,355.906 154.238,366.628 					"/>
					<polygon style="fill:#142C42;" points="177.356,355.906 177.356,365.02 178.897,364.551 178.897,355.102 					"/>
				</g>
				<g>
					<polygon style="fill:#142C42;" points="216.048,368.504 193.735,361.803 193.735,352.422 216.048,363.143 					"/>
					<polygon style="fill:#142C42;" points="192.929,352.422 192.929,361.535 191.388,361.066 191.388,351.618 					"/>
				</g>
				<path style="fill:none;stroke:#142C42;stroke-width:2;stroke-linecap:round;stroke-miterlimit:10;" d="M142.491,404.868
					c0,0,16.08,24.045,53.872,10.914"/>
				<path style="fill:none;stroke:#142C42;stroke-width:2;stroke-linecap:round;stroke-miterlimit:10;" d="M139.354,407.615
					c0,0,2.882-4.291,7.687-4.147"/>
				<path style="fill:#142C42;" d="M128.51,328.588c0,0-3.995-8.167-6.984-6.245C118.537,324.265,122.39,330.03,128.51,328.588z"/>
			</g>
			
				<polygon style="fill:#FFFFFF;stroke:#142C42;stroke-width:2;stroke-linecap:round;stroke-linejoin:round;stroke-miterlimit:10;" points="
				170.271,546.453 203.718,448.06 136.761,448.06 			"/>
			<g>
				<polygon style="fill:#FA5A1A;" points="171.201,452.434 162.325,524.636 171.201,542.89 180.076,524.636 				"/>
				<polygon style="fill:#FA5A1A;" points="165.203,457.408 171.309,463.343 177.199,457.408 171.201,448.57 				"/>
			</g>
			<g>
				
					<polygon style="fill:#142C42;stroke:#FFFFFF;stroke-width:2;stroke-linecap:round;stroke-linejoin:round;stroke-miterlimit:10;" points="
					170.271,546.453 144.097,446.144 128.73,446.144 128.151,486.753 138.145,487.711 131.46,500.617 				"/>
				
					<polygon style="fill:#142C42;stroke:#FFFFFF;stroke-width:2;stroke-linecap:round;stroke-linejoin:round;stroke-miterlimit:10;" points="
					170.271,546.453 196.445,446.144 211.812,446.144 212.391,486.753 202.397,487.711 209.082,500.617 				"/>
			</g>
		</g>
		<g>
			
				<polygon style="fill:none;stroke:#142C42;stroke-width:2;stroke-linecap:round;stroke-linejoin:round;stroke-miterlimit:10;" points="
				196.363,448.066 179.636,460.093 170.907,448.57 162.178,460.093 144.116,448.066 			"/>
		</g>
	</g>
	<g>
		<ellipse style="fill:#FA5A1A;" cx="626.508" cy="709.791" rx="110.748" ry="12.01"/>
		<polygon style="fill:#FFFFFF;stroke:#FA5A1A;stroke-width:2;stroke-miterlimit:10;" points="624.245,449.411 642.202,460.093 
			661.556,449.411 661.556,428.513 624.245,428.513 		"/>
		<g>
			<path style="fill:#FFFFFF;stroke:#FA5A1A;stroke-width:2;stroke-miterlimit:10;" d="M693.015,342.022l-10.161,95.156
				c-0.456,4.271-4.27,7.354-8.52,6.9l-63.612-6.793c-7.333-0.783-12.499-7.951-10.9-15.182l19.453-87.956L693.015,342.022z"/>
			<path style="fill:#142C42;" d="M688.389,395.036c24.889-52.1,6.623-62.022,6.623-62.022c-3.539-21.153-35.718-9.37-50.501-11.19
				c-9.429-1.161-10.916-6.486-10.755-10.191c0.078-1.806-1.869-3.027-3.474-2.196c-8.943,4.63-6.608,15.235-6.608,15.235
				c-3.288-1.257-4.958-3.138-5.787-4.905c-0.825-1.758-3.212-1.958-4.247-0.314c-7.128,11.316,4.726,17.939,4.726,17.939
				l71.008,7.583c-21.908,28.581-6.325,49.492-6.325,49.492L688.389,395.036z"/>
			<polyline style="fill:none;stroke:#FA5A1A;stroke-width:2;stroke-linecap:round;stroke-miterlimit:10;" points="635.555,371.468 
				624.081,406.095 634.209,407.176 			"/>
			<g>
				<g>
					<g>
						<path style="fill:#FFFFFF;stroke:#142C42;stroke-width:2;stroke-miterlimit:10;" d="M644.004,401.423l13.83,1.477
							c3.737,0.399,7.09-2.307,7.489-6.044l1.257-11.767l-27.363-2.922l-1.257,11.767
							C637.561,397.671,640.267,401.024,644.004,401.423z"/>
						<circle style="fill:#142C42;" cx="651.908" cy="392.894" r="2.948"/>
					</g>
					<g>
						<path style="fill:#FFFFFF;stroke:#142C42;stroke-width:2;stroke-miterlimit:10;" d="M607.063,397.478l13.83,1.477
							c3.737,0.399,7.09-2.307,7.489-6.044l1.257-11.767l-27.363-2.922l-1.257,11.767
							C600.62,393.726,603.326,397.079,607.063,397.478z"/>
						<circle style="fill:#142C42;" cx="614.968" cy="388.95" r="2.948"/>
					</g>
					<path style="fill:none;stroke:#142C42;stroke-width:2;stroke-miterlimit:10;" d="M638.818,386.644c0,0-3.97-4.467-9.656-1.031"
						/>
				</g>
				
					<line style="fill:none;stroke:#142C42;stroke-width:2;stroke-miterlimit:10;" x1="666.102" y1="389.558" x2="686.621" y2="391.749"/>
			</g>
			<g>
				<path style="fill:#FFFFFF;stroke:#FA5A1A;stroke-width:2;stroke-linecap:round;stroke-miterlimit:10;" d="M681.884,396.433
					c0,0,8.506-16.074,17.925-12.373s3.871,37.074-16.794,35.406"/>
				<path style="fill:none;stroke:#FA5A1A;stroke-width:2;stroke-linecap:round;stroke-miterlimit:10;" d="M697.026,394.475
					c0,0-10.537,0.223-14.273,12.493"/>
				<path style="fill:none;stroke:#FA5A1A;stroke-width:2;stroke-linecap:round;stroke-miterlimit:10;" d="M686.162,400.324
					c0,0,5.627,0.062,5.641,7.611"/>
			</g>
			<g>
				<polygon style="fill:#142C42;" points="666.521,372.169 645.047,363.137 646.043,353.808 667.091,366.838 				"/>
				<polygon style="fill:#142C42;" points="645.241,353.723 644.274,362.785 642.791,362.154 643.794,352.759 				"/>
			</g>
			<g>
				<polygon style="fill:#142C42;" points="605.431,362.141 628.329,357.847 629.325,348.519 606,356.81 				"/>
				<polygon style="fill:#142C42;" points="630.126,348.604 629.159,357.666 630.741,357.363 631.744,347.968 				"/>
			</g>
			<path style="fill:none;stroke:#142C42;stroke-width:2;stroke-linecap:round;stroke-miterlimit:10;" d="M674.711,406.11
				c0,0-18.542,22.202-54.726,5.132"/>
			<path style="fill:none;stroke:#142C42;stroke-width:2;stroke-linecap:round;stroke-miterlimit:10;" d="M677.538,409.175
				c0,0-2.411-4.573-7.203-4.94"/>
			<path style="fill:#142C42;" d="M696.712,331.746c0,0,4.84-7.697,7.608-5.468C707.088,328.505,702.644,333.829,696.712,331.746z"
				/>
		</g>
		<g>
			<path style="fill:#142C42;stroke:#FFFFFF;stroke-width:2;stroke-linecap:round;stroke-linejoin:round;stroke-miterlimit:10;" d="
				M607.734,567.698L554.139,682.44l-17.038-2.445c-1.566-0.225-2.211,1.938-0.777,2.607l37.873,17.69l70.61-115.279
				L607.734,567.698z"/>
			<path style="fill:#142C42;stroke:#FFFFFF;stroke-width:2;stroke-linecap:round;stroke-linejoin:round;stroke-miterlimit:10;" d="
				M683.817,575.462v126.642l16.472,4.995c1.514,0.459,1.183,2.691-0.399,2.691h-41.8L642.9,575.462H683.817z"/>
		</g>
		<g>
			
				<polygon style="fill:#142C42;stroke:#FFFFFF;stroke-width:2;stroke-linecap:round;stroke-linejoin:round;stroke-miterlimit:10;" points="
				592.708,576.424 693.093,576.424 682.455,448.066 603.345,448.066 			"/>
			
				<polygon style="fill:#FFFFFF;stroke:#142C42;stroke-width:2;stroke-linecap:round;stroke-linejoin:round;stroke-miterlimit:10;" points="
				642.9,546.453 609.453,448.06 676.411,448.06 			"/>
			<g>
				<polygon style="fill:#FA5A1A;" points="641.971,452.434 650.846,524.636 641.971,542.89 633.095,524.636 				"/>
				<polygon style="fill:#FA5A1A;" points="647.969,457.408 641.863,463.343 635.972,457.408 641.971,448.57 				"/>
			</g>
			<g>
				
					<polygon style="fill:#142C42;stroke:#FFFFFF;stroke-width:2;stroke-linecap:round;stroke-linejoin:round;stroke-miterlimit:10;" points="
					642.9,546.453 669.074,446.144 684.441,446.144 685.02,486.753 675.027,487.711 681.712,500.617 				"/>
				
					<polygon style="fill:#142C42;stroke:#FFFFFF;stroke-width:2;stroke-linecap:round;stroke-linejoin:round;stroke-miterlimit:10;" points="
					642.9,546.453 616.727,446.144 601.36,446.144 600.781,486.753 610.774,487.711 604.089,500.617 				"/>
			</g>
			<g>
				
					<polygon style="fill:none;stroke:#142C42;stroke-width:2;stroke-linecap:round;stroke-linejoin:round;stroke-miterlimit:10;" points="
					616.809,448.066 633.536,460.093 642.264,448.57 650.993,460.093 669.055,448.066 				"/>
			</g>
		</g>
		
			<rect x="543.349" y="494.03" transform="matrix(0.9976 -0.0686 0.0686 0.9976 -35.7364 45.1772)" style="fill:#FA5A1A;stroke:#FFFFFF;stroke-width:2;stroke-miterlimit:10;" width="193.073" height="97.72"/>
		<polygon style="fill:#FFFFFF;" points="684.217,521.304 670.957,501.133 660.118,522.703 669.169,522.178 669.76,532.365 
			647.422,533.661 648.388,550.313 627.269,551.538 628.753,577.125 602.51,578.648 602.858,584.647 635.1,582.776 633.615,557.189 
			654.735,555.964 653.769,539.311 676.107,538.015 675.167,521.83 		"/>
	</g>
	<g>
		<g>
			<path style="fill:#FFFFFF;stroke:#FA5A1A;stroke-width:2;stroke-linecap:round;stroke-linejoin:round;stroke-miterlimit:10;" d="
				M557.611,534.298l0.002,0.253c0.011,1.709-1.365,3.103-3.074,3.114l-13.771,0.089l-0.042-6.441l13.771-0.089
				C556.206,531.213,557.6,532.589,557.611,534.298z"/>
			<path style="fill:#FFFFFF;stroke:#FA5A1A;stroke-width:2;stroke-linecap:round;stroke-linejoin:round;stroke-miterlimit:10;" d="
				M557.182,528.049l0.002,0.253c0.011,1.709-1.365,3.103-3.074,3.114l-13.771,0.089l-0.042-6.441l13.771-0.089
				C555.776,524.964,557.171,526.34,557.182,528.049z"/>
			<path style="fill:#FFFFFF;stroke:#FA5A1A;stroke-width:2;stroke-linecap:round;stroke-linejoin:round;stroke-miterlimit:10;" d="
				M556.752,521.8l0.002,0.253c0.011,1.709-1.365,3.103-3.074,3.114l-13.771,0.089l-0.042-6.441l13.771-0.089
				C555.347,518.715,556.741,520.091,556.752,521.8z"/>
			<path style="fill:#FFFFFF;stroke:#FA5A1A;stroke-width:2;stroke-linecap:round;stroke-linejoin:round;stroke-miterlimit:10;" d="
				M556.322,515.551l0.002,0.253c0.011,1.709-1.365,3.103-3.074,3.114l-13.771,0.089l-0.042-6.441l13.771-0.089
				C554.917,512.466,556.311,513.842,556.322,515.551z"/>
		</g>
		<g>
			<path style="fill:#FFFFFF;stroke:#FA5A1A;stroke-width:2;stroke-linecap:round;stroke-linejoin:round;stroke-miterlimit:10;" d="
				M726.461,522.687l0.033,0.251c0.223,1.694,1.777,2.887,3.471,2.664l13.654-1.797l-0.84-6.386l-13.654,1.797
				C727.43,519.439,726.238,520.993,726.461,522.687z"/>
			<path style="fill:#FFFFFF;stroke:#FA5A1A;stroke-width:2;stroke-linecap:round;stroke-linejoin:round;stroke-miterlimit:10;" d="
				M726.031,516.438l0.033,0.251c0.223,1.694,1.777,2.887,3.471,2.664l13.654-1.797l-0.84-6.386l-13.654,1.797
				C727.001,513.19,725.808,514.744,726.031,516.438z"/>
			<path style="fill:#FFFFFF;stroke:#FA5A1A;stroke-width:2;stroke-linecap:round;stroke-linejoin:round;stroke-miterlimit:10;" d="
				M725.601,510.189l0.033,0.251c0.223,1.694,1.777,2.887,3.471,2.664l13.654-1.797l-0.84-6.386l-13.654,1.797
				C726.571,506.941,725.378,508.495,725.601,510.189z"/>
			<path style="fill:#FFFFFF;stroke:#FA5A1A;stroke-width:2;stroke-linecap:round;stroke-linejoin:round;stroke-miterlimit:10;" d="
				M725.171,503.94l0.033,0.251c0.223,1.694,1.777,2.887,3.471,2.664l13.654-1.797l-0.84-6.386l-13.654,1.797
				C726.141,500.691,724.949,502.245,725.171,503.94z"/>
		</g>
	</g>
	<g>
		<ellipse style="fill:#FA5A1A;" cx="399.213" cy="535.482" rx="110.748" ry="12.01"/>
		<g>
			<path style="fill:#142C42;stroke:#FFFFFF;stroke-width:2;stroke-linecap:round;stroke-linejoin:round;stroke-miterlimit:10;" d="
				M363.349,401.154v126.642l-16.472,4.995c-1.514,0.459-1.183,2.691,0.399,2.691h41.8l15.189-134.329H363.349z"/>
			<path style="fill:#142C42;stroke:#FFFFFF;stroke-width:2;stroke-linecap:round;stroke-linejoin:round;stroke-miterlimit:10;" d="
				M445.181,401.154v126.642l16.472,4.995c1.514,0.459,1.183,2.691-0.399,2.691h-41.8l-15.189-134.329H445.181z"/>
		</g>
		<g>
			<polygon style="fill:#FFFFFF;stroke:#FA5A1A;stroke-width:2;stroke-miterlimit:10;" points="422.921,275.102 404.963,285.784 
				385.609,275.102 385.609,254.204 422.921,254.204 			"/>
			<g>
				
					<path style="fill:#FFFFFF;stroke:#FA5A1A;stroke-width:2;stroke-linecap:round;stroke-linejoin:round;stroke-miterlimit:10;" d="
					M506.734,220.321c-6.441-3.84-10.112,1.022-10.112,1.022l0.804-6.286c0.271-2.12-0.8-4.187-2.689-5.187l-0.886-0.469
					l-7.341,18.712l20.223,5.174l16.821-11.83l-7.325-19.589l-12.495,8.607l-14.907-20.441c-1.225-1.68-3.652-1.892-5.15-0.449v0
					c-1.122,1.081-1.375,2.783-0.615,4.143l9.951,17.806"/>
				
					<path style="fill:#FFFFFF;stroke:#FA5A1A;stroke-width:2;stroke-linecap:round;stroke-linejoin:round;stroke-miterlimit:10;" d="
					M508.481,214.657l-0.232,0.101c-1.568,0.679-3.39-0.042-4.069-1.61l-5.473-12.637l5.911-2.56l5.473,12.637
					C510.77,212.156,510.049,213.978,508.481,214.657z"/>
				
					<path style="fill:#FFFFFF;stroke:#FA5A1A;stroke-width:2;stroke-linecap:round;stroke-linejoin:round;stroke-miterlimit:10;" d="
					M514.281,212.382l-0.232,0.101c-1.568,0.679-3.39-0.042-4.069-1.61l-5.473-12.637l5.911-2.56l5.473,12.637
					C516.57,209.881,515.849,211.703,514.281,212.382z"/>
				
					<path style="fill:#FFFFFF;stroke:#FA5A1A;stroke-width:2;stroke-linecap:round;stroke-linejoin:round;stroke-miterlimit:10;" d="
					M519.079,211.326l-0.243,0.07c-1.641,0.475-3.357-0.471-3.832-2.112l-3.827-13.229l6.188-1.79l3.827,13.229
					C521.666,209.135,520.72,210.851,519.079,211.326z"/>
			</g>
			<g>
				<path style="fill:#142C42;" d="M508.372,271.276c14.848-14.209-4.949-37.656-4.949-37.656l20.698-13.352
					c0,0,30.507,28.512,10.21,56.886c-1.732,2.442-3.838,4.87-6.358,7.281c-6.692,6.404-14.773,10.147-23.363,12.052
					c-32.39,7.205-72.057-11.608-72.057-11.608l11.541-9.355C444.094,275.524,493.517,285.492,508.372,271.276z"/>
			</g>
			<path style="fill:#FFFFFF;stroke:#FA5A1A;stroke-width:2;stroke-miterlimit:10;" d="M347.729,379.11l5.044,4.324l-3.114,8.407h0
				c-2.716-1.356-6.018-0.393-7.58,2.21l-0.115,0.192l12.387,4.509l2.838-34.247l-4.896-1.703L347.729,379.11z"/>
			
				<polygon style="fill:#142C42;stroke:#FFFFFF;stroke-width:2;stroke-linecap:round;stroke-linejoin:round;stroke-miterlimit:10;" points="
				454.458,402.115 354.072,402.115 364.71,273.757 443.82,273.757 			"/>
			<path style="fill:#142C42;" d="M323.075,337.939c0,20.552,31.957,21.071,31.957,21.071l-6.057,23.897
				c0,0-41.628,4.005-48.094-30.277c-0.567-2.94-0.865-6.14-0.865-9.627c0-9.262,2.882-17.689,7.446-25.212
				c17.189-28.382,58.206-44.034,58.206-44.034l-1.22,14.806C364.448,288.563,323.075,317.378,323.075,337.939z"/>
			<g>
				<path style="fill:#FFFFFF;stroke:#FA5A1A;stroke-width:2;stroke-miterlimit:10;" d="M365.089,164.89l0,95.697
					c0,4.296,3.465,7.766,7.739,7.766l63.974,0c7.374,0,13.273-6.579,12.45-13.939l-10.004-89.524L365.089,164.89z"/>
				<path style="fill:#142C42;" d="M364.06,218.096c-19.216-54.448,0-62.375,0-62.375c5.765-20.658,36.511-5.525,51.404-5.765
					c9.499-0.153,11.543-5.291,11.777-8.991c0.114-1.804,2.18-2.812,3.688-1.815c8.401,5.553,4.953,15.851,4.953,15.851
					c3.403-0.901,5.263-2.594,6.275-4.263c1.007-1.661,3.401-1.606,4.256,0.138c5.886,12.008-6.604,17.335-6.604,17.335h-71.411
					c18.749,30.746,1.034,49.884,1.034,49.884H364.06z"/>
				<polyline style="fill:none;stroke:#FA5A1A;stroke-width:2;stroke-linecap:round;stroke-miterlimit:10;" points="
					419.097,200.271 426.83,235.92 416.644,235.92 				"/>
				<g>
					<g>
						<g>
							<path style="fill:#FFFFFF;stroke:#142C42;stroke-width:2;stroke-miterlimit:10;" d="M407.516,229.159h-13.909
								c-3.758,0-6.805-3.047-6.805-6.805V210.52h27.519v11.834C414.321,226.113,411.274,229.159,407.516,229.159z"/>
							<circle style="fill:#142C42;" cx="404.346" cy="218.096" r="2.948"/>
						</g>
						<g>
							<path style="fill:#FFFFFF;stroke:#142C42;stroke-width:2;stroke-miterlimit:10;" d="M444.666,229.159h-13.909
								c-3.758,0-6.805-3.047-6.805-6.805V210.52h27.519v11.834C451.471,226.113,448.425,229.159,444.666,229.159z"/>
							<circle style="fill:#142C42;" cx="441.496" cy="218.096" r="2.948"/>
						</g>
						<path style="fill:none;stroke:#142C42;stroke-width:2;stroke-miterlimit:10;" d="M414.242,215.015c0,0,4.422-4.021,9.711,0"/>
					</g>
					
						<line style="fill:none;stroke:#142C42;stroke-width:2;stroke-miterlimit:10;" x1="386.802" y1="215.015" x2="366.167" y2="215.015"/>
				</g>
				<g>
					<path style="fill:#FFFFFF;stroke:#FA5A1A;stroke-width:2;stroke-linecap:round;stroke-miterlimit:10;" d="M370.38,220.175
						c0,0-6.751-16.886-16.509-14.206s-7.786,36.453,12.939,36.989"/>
					<path style="fill:none;stroke:#FA5A1A;stroke-width:2;stroke-linecap:round;stroke-miterlimit:10;" d="M355.531,216.621
						c0,0,10.454,1.34,12.866,13.938"/>
					<path style="fill:none;stroke:#FA5A1A;stroke-width:2;stroke-linecap:round;stroke-miterlimit:10;" d="M365.713,223.59
						c0,0-5.601-0.536-6.417,6.969"/>
				</g>
				<g>
					<polygon style="fill:#142C42;" points="388.232,204.113 410.544,197.412 410.544,188.031 388.232,198.752 					"/>
					<polygon style="fill:#142C42;" points="411.35,188.031 411.35,197.144 412.891,196.675 412.891,187.226 					"/>
				</g>
				<g>
					<polygon style="fill:#142C42;" points="450.042,194.195 427.729,187.494 427.729,178.113 450.042,188.835 					"/>
					<polygon style="fill:#142C42;" points="426.923,178.113 426.923,187.226 425.382,186.757 425.382,177.309 					"/>
				</g>
				<path style="fill:none;stroke:#142C42;stroke-width:2;stroke-linecap:round;stroke-miterlimit:10;" d="M373.348,230.852
					c0,0,2.882-4.291,7.687-4.147"/>
				<path style="fill:#142C42;" d="M362.504,154.279c0,0-3.995-8.167-6.984-6.245S356.384,155.721,362.504,154.279z"/>
				<g>
					<g id="XMLID_1_">
						<g>
							<path style="fill:#142C42;" d="M419.222,241.984c0,0-2.195,12.435-18.554,12.484c-1.349,0-2.796-0.074-4.353-0.258
								c-8.928-1.03-13.845-5.997-16.555-11.319c-3.593-7.076-3.274-14.789-3.274-14.789S389.374,247.392,419.222,241.984z"/>
						</g>
						<path style="fill:#FA5A1A;" d="M400.668,254.468c-1.349,0-2.796-0.074-4.353-0.258c-8.928-1.03-13.845-5.997-16.555-11.319
							c1.974-1.03,4.231-1.606,6.61-1.606C393.899,241.285,400.067,247.085,400.668,254.468z"/>
						<g>
							
								<path style="fill:none;stroke:#142C42;stroke-width:2;stroke-linecap:round;stroke-linejoin:round;stroke-miterlimit:10;" d="
								M419.222,241.984c3.47-0.625,7.186-1.594,11.135-2.968"/>
							
								<path style="fill:none;stroke:#142C42;stroke-width:2;stroke-linecap:round;stroke-linejoin:round;stroke-miterlimit:10;" d="
								M419.222,241.984c0,0-2.195,12.435-18.554,12.484c-1.349,0-2.796-0.074-4.353-0.258c-8.928-1.03-13.845-5.997-16.555-11.319
								c-3.593-7.076-3.274-14.789-3.274-14.789S389.374,247.392,419.222,241.984z"/>
						</g>
					</g>
				</g>
			</g>
			
				<polygon style="fill:#FFFFFF;stroke:#142C42;stroke-width:2;stroke-linecap:round;stroke-linejoin:round;stroke-miterlimit:10;" points="
				404.265,372.144 437.712,273.751 370.755,273.751 			"/>
			<g>
				<polygon style="fill:#FA5A1A;" points="405.195,278.125 396.319,350.327 405.195,368.581 414.07,350.327 				"/>
				<polygon style="fill:#FA5A1A;" points="399.197,283.099 405.303,289.034 411.193,283.099 405.195,274.261 				"/>
			</g>
			<g>
				
					<polygon style="fill:#142C42;stroke:#FFFFFF;stroke-width:2;stroke-linecap:round;stroke-linejoin:round;stroke-miterlimit:10;" points="
					404.265,372.144 378.091,271.835 362.724,271.835 362.145,312.444 372.139,313.402 365.454,326.308 				"/>
				
					<polygon style="fill:#142C42;stroke:#FFFFFF;stroke-width:2;stroke-linecap:round;stroke-linejoin:round;stroke-miterlimit:10;" points="
					404.265,372.144 430.439,271.835 445.806,271.835 446.385,312.444 436.391,313.402 443.077,326.308 				"/>
			</g>
		</g>
		<g>
			
				<polygon style="fill:none;stroke:#142C42;stroke-width:2;stroke-linecap:round;stroke-linejoin:round;stroke-miterlimit:10;" points="
				430.357,273.757 413.63,285.784 404.901,274.261 396.172,285.784 378.11,273.757 			"/>
		</g>
		<g>
			<path style="fill:#FA5A1A;" d="M313.699,208.145c7.121-1.671,12.999-0.071,12.999-0.071l-1.108,10.035
				c0,0-5.871-1.403-10.671,0.4c-3.689,1.385-4.968,3.669-4.001,6.245c1.033,2.752,6.084,2.859,12.247,3.084
				c6.046,0.268,13.432,2.504,15.74,8.652c3.429,9.133-0.667,15.481-7.289,19.37l3.187,8.489l-6.323,2.374l-3.034-8.079
				c-10.267,3.254-18.349-0.124-18.349-0.124l1.986-10.899c0,0,8.243,2.917,13.453,0.96c2.283-0.857,6.586-2.74,4.959-7.072
				c-1.319-3.513-6.845-3.108-13.381-3.793c-6.675-0.7-11.581-3.801-13.406-8.66c-2.726-7.259,0.938-14.58,6.733-18.359l-3.166-8.43
				l6.323-2.374L313.699,208.145z"/>
		</g>
		<g>
			<path style="fill:#FA5A1A;" d="M487.905,140.212c5.347,3.314,7.949,7.862,7.949,7.862l-6.777,5.429c0,0-2.717-4.424-6.733-6.247
				c-3.086-1.401-5.253-0.79-6.231,1.365c-1.045,2.302,1.961,5.439,5.573,9.323c3.514,3.84,6.646,9.692,4.311,14.834
				c-3.469,7.64-9.82,9.009-16.213,7.347l-3.224,7.101l-5.289-2.402l3.068-6.758c-8.223-4.265-11.084-11.235-11.084-11.235
				l7.836-5.42c0,0,3.239,6.787,7.598,8.766c1.91,0.867,5.672,2.339,7.317-1.285c1.334-2.938-2.273-6.053-5.831-10.445
				c-3.634-4.485-4.732-9.354-2.886-13.42c2.757-6.073,9.437-8.297,15.26-7.07l3.202-7.052l5.289,2.402L487.905,140.212z"/>
		</g>
	</g>
	
		<text transform="matrix(1 0 0 1 185.8923 91.8793)" style="fill:#FA5A1A; font-family:'LeagueSpartan-Bold'; font-size:38.3368px; letter-spacing:3;">BUSINESS CHARACTER</text>
</g>
</svg>
